<svg version="1.1" id="Layer_1" xmlns="http://www.w3.org/2000/svg" xmlns:xlink="http://www.w3.org/1999/xlink" x="0px" y="0px"
	 width="100%" viewBox="0 0 592 592" enable-background="new 0 0 592 592" xml:space="preserve">
<path fill="#000000" opacity="1.000000" stroke="none" 
	d="
M476.202087,288.270264 
	C481.041656,278.546661 485.839539,269.215851 490.323914,259.736755 
	C492.049072,256.090057 494.323242,254.643845 498.430969,254.695572 
	C513.378967,254.883759 512.685974,253.866104 505.965637,267.246979 
	C487.807892,303.401001 469.615326,339.537567 451.400482,375.662872 
	C450.602600,377.245300 450.208435,379.175354 447.371002,380.623291 
	C436.977570,359.633514 426.593658,338.662964 415.497864,316.254791 
	C404.293274,338.643433 393.840942,359.528839 383.305603,380.580170 
	C379.919434,379.245270 379.379089,376.352631 378.289124,374.145050 
	C359.714600,336.525330 341.248627,298.851990 322.768524,261.185699 
	C319.972656,255.487198 320.476532,255.391235 326.909821,254.630173 
	C335.775116,253.581390 340.459076,256.716797 344.267914,265.110474 
	C355.338043,289.506226 367.541351,313.387878 379.305908,337.468353 
	C380.166168,339.229187 381.072571,340.967468 381.996826,342.793854 
	C384.359833,341.656921 384.935608,339.657715 385.798706,337.949249 
	C391.805542,326.059265 397.628632,314.074188 403.801178,302.271545 
	C405.636444,298.762268 405.483368,295.984772 403.718811,292.515503 
	C398.284546,281.831329 393.271088,270.933960 387.976654,260.177277 
	C386.226776,256.622040 386.823425,254.785477 391.042908,254.841537 
	C391.209412,254.843750 391.376160,254.838791 391.542542,254.831207 
	C404.779938,254.227951 404.611877,254.308426 410.845703,267.317444 
	C422.494049,291.625549 434.356140,315.831268 446.141479,340.073700 
	C446.633728,341.086212 447.249207,342.038818 448.409393,344.077179 
	C457.881195,325.057617 466.958252,306.830719 476.202087,288.270264 
z"/>
<path fill="#000000" opacity="1.000000" stroke="none" 
	d="
M289.312988,291.711853 
	C279.667145,278.113922 266.375336,272.377625 250.486832,272.154114 
	C236.164398,271.952667 221.836868,272.130280 207.511719,272.094299 
	C201.424484,272.079041 200.912781,271.538025 200.923782,265.581116 
	C200.944733,254.247665 199.893387,254.798721 211.798172,254.795090 
	C224.957382,254.791077 238.131729,254.370636 251.272522,254.858215 
	C275.430298,255.754532 294.639984,265.987854 306.761475,287.297699 
	C318.930054,308.690308 318.330872,330.478333 305.355316,351.268921 
	C293.316650,370.558289 275.319153,380.474182 252.518661,381.186157 
	C243.865723,381.456299 235.195755,381.133881 226.535172,381.228577 
	C222.713577,381.270325 221.364990,379.813080 221.337997,375.852234 
	C221.255569,363.747498 218.921112,363.972534 233.436783,363.969879 
	C242.244217,363.968262 251.062912,364.574371 259.867645,363.211426 
	C280.214111,360.061890 295.990784,342.144592 296.889496,321.483124 
	C297.353668,310.811401 295.345825,300.992767 289.312988,291.711853 
z"/>
<path fill="#000000" opacity="1.000000" stroke="none" 
	d="
M119.265244,273.300415 
	C121.772163,268.366028 124.062225,263.738525 126.447769,259.160828 
	C127.187889,257.740570 127.776161,255.866043 129.895294,256.071320 
	C131.682236,256.244385 132.032730,257.954376 132.713181,259.259705 
	C150.569031,293.513794 168.428757,327.765900 186.286469,362.019012 
	C189.327515,367.852112 192.794159,373.489960 195.309036,380.380615 
	C189.089462,381.714355 183.509186,381.454559 177.984833,380.813690 
	C175.847763,380.565765 175.131775,378.196014 174.217590,376.431580 
	C160.124054,349.230011 146.038864,322.024109 131.952682,294.818726 
	C131.426971,293.803406 131.110260,292.623413 129.362946,292.005280 
	C125.115677,297.400391 122.523453,303.913666 119.312439,309.996552 
	C107.809204,331.788239 96.501579,353.685303 85.369942,375.669067 
	C83.259834,379.836304 80.682594,381.919281 76.043953,381.232544 
	C75.555130,381.160217 75.045845,381.225677 74.546051,381.228088 
	C62.534622,381.286591 62.596863,381.319336 68.276138,370.512939 
	C85.241104,338.232483 102.152718,305.924011 119.265244,273.300415 
z"/>
</svg>